<?xml version="1.0" encoding="UTF-8" standalone="no"?>
<svg
   xmlns:dc="http://purl.org/dc/elements/1.1/"
   xmlns:cc="http://creativecommons.org/ns#"
   xmlns:rdf="http://www.w3.org/1999/02/22-rdf-syntax-ns#"
   xmlns:svg="http://www.w3.org/2000/svg"
   xmlns="http://www.w3.org/2000/svg"
   xmlns:sodipodi="http://sodipodi.sourceforge.net/DTD/sodipodi-0.dtd"
   xmlns:inkscape="http://www.inkscape.org/namespaces/inkscape"
   version="1.1"
   x="0px"
   y="0px"
   viewBox="0 0 100 100"
   id="svg10"
   sodipodi:docname="noun_Book_1557574-with-bg.svg"
   width="100"
   height="100"
   inkscape:version="0.92.3 (2405546, 2018-03-11)">
  <metadata
     id="metadata16">
    <rdf:RDF>
      <cc:Work
         rdf:about="">
        <dc:format>image/svg+xml</dc:format>
        <dc:type
           rdf:resource="http://purl.org/dc/dcmitype/StillImage" />
        <dc:title></dc:title>
      </cc:Work>
    </rdf:RDF>
  </metadata>
  <defs
     id="defs14" />
  <sodipodi:namedview
     pagecolor="#ffffff"
     bordercolor="#666666"
     borderopacity="1"
     objecttolerance="10"
     gridtolerance="10"
     guidetolerance="10"
     inkscape:pageopacity="0"
     inkscape:pageshadow="2"
     inkscape:window-width="1920"
     inkscape:window-height="1026"
     id="namedview12"
     showgrid="false"
     inkscape:zoom="5.3400704"
     inkscape:cx="96.761389"
     inkscape:cy="49.719841"
     inkscape:window-x="0"
     inkscape:window-y="0"
     inkscape:window-maximized="1"
     inkscape:current-layer="svg10" />
  <g
     transform="translate(0,-953.36218)"
     id="g4">
    <path
       style="fill:#ffffff;fill-opacity:1;stroke:none;stroke-width:1px;stroke-linecap:butt;stroke-linejoin:miter;stroke-opacity:1"
       d="m 5.43064,1033.6995 c 0,0 25.467829,-13.483 44.943228,-0.3745 20.411715,-14.4193 43.44512,0 43.44512,0 l 1.310844,-49.43756 -8.052328,-2.62169 0.187263,-9.55043 c 0,0 -19.866547,-8.00412 -36.950138,7.24203 -16.341754,-14.27129 -37.187263,-6.31226 -37.187263,-6.31226 l -0.580715,8.99519 -7.6778013,2.62169 z"
       id="path842"
       inkscape:connector-curvature="0"
       sodipodi:nodetypes="ccccccccccc" />
    <path
       style="color:#000000;font-style:normal;font-variant:normal;font-weight:normal;font-stretch:normal;font-size:medium;line-height:normal;font-family:Sans;-inkscape-font-specification:Sans;text-indent:0;text-align:start;text-decoration:none;text-decoration-line:none;letter-spacing:normal;word-spacing:normal;text-transform:none;writing-mode:lr-tb;direction:ltr;baseline-shift:baseline;text-anchor:start;display:inline;overflow:visible;visibility:visible;opacity:1;fill:#000000;fill-opacity:1;stroke:none;stroke-width:3.99999928;marker:none;enable-background:accumulate"
       d="m 24.8125,16 c 0,0 -7.894958,0.60581 -12.4375,2.09375 A 2.0001996,2.0001996 0 0 0 11,20 v 7.09375 C 8.6571436,27.983986 6.3358804,29.042255 4.0625,30.25 A 2.0001996,2.0001996 0 0 0 3,32.03125 v 50 a 2.0001996,2.0001996 0 0 0 2.9375,1.75 c 6.913152,-3.6726 14.016979,-5.8066 21.03125,-5.75 a 2.0001996,2.0001996 0 0 0 0.03125,0 c 8.520487,0 16.319819,2.21405 21.0625,4.71875 A 2.0001996,2.0001996 0 0 0 49,83 h 2 a 2.0001996,2.0001996 0 0 0 0.9375,-0.25 C 56.685768,80.2424 64.484162,78 73,78 a 2.0001996,2.0001996 0 0 0 0.03125,0 c 7.014271,-0.057 14.118098,2.0774 21.03125,5.75 A 2.0001996,2.0001996 0 0 0 97,82 V 32 A 2.0001996,2.0001996 0 0 0 95.9375,30.21875 C 93.659407,29.008507 91.345696,27.954345 89,27.0625 V 20 A 2.0001996,2.0001996 0 0 0 87.625,18.09375 C 83.492628,16.74016 79.576567,16 75,16 65.766127,16 57.222004,18.985613 50,24.125 42.778311,18.985815 34.234383,16 25,16 a 2.0001996,2.0001996 0 0 0 -0.1875,0 z M 25,20 c 8.527417,0 16.314992,2.79099 23,7.65625 v 46.9375 C 41.203204,70.31442 33.375247,68 25,68 21.39826,68 18.210311,68.5809 15,69.4375 V 21.59375 C 18.725282,20.66448 24.705193,20.02875 25,20 Z m 50,0 c 3.640644,0 6.713434,0.59242 10,1.5625 v 47.875 C 81.789689,68.5809 78.60174,68 75,68 66.592533,68 58.812947,70.4391 52,74.75 V 27.71875 C 58.689794,22.84447 66.46317,20 75,20 Z m 14,11.40625 c 1.338139,0.581201 2.671618,1.201141 4,1.875 v 45.5625 C 86.538948,75.81605 79.810185,73.9507 73,74 c -0.0104,1e-4 -0.02085,-1e-4 -0.03125,0 -6.118585,0.0068 -11.777304,1.081995 -16.5,2.625 C 62.060023,73.608611 68.293286,72 75,72 c 4.15287,0 7.52999,0.64685 11.375,1.90625 A 2.0001996,2.0001996 0 0 0 89,72 Z M 11,31.4375 V 72 a 2.0001996,2.0001996 0 0 0 2.625,1.875 C 17.47001,72.6156 20.84713,72 25,72 c 6.756272,0 13.033807,1.605523 18.65625,4.65625 -4.74784,-1.556862 -10.456821,-2.621344 -16.625,-2.625 H 27 C 20.189815,73.98225 13.461052,75.8473 7,78.875 V 33.3125 c 1.3230226,-0.671178 2.6650252,-1.297218 4,-1.875 z"
       transform="translate(0,952.36218)"
       id="path2"
       inkscape:connector-curvature="0" />
  </g>
  <text
     x="-71.721901"
     y="83.633041"
     font-size="5px"
     font-weight="bold"
     id="text6"
     style="font-weight:bold;font-size:5px;font-family:'Helvetica Neue', Helvetica, Arial-Unicode, Arial, Sans-serif;fill:#000000">Created by beth bolton</text>
  <text
     x="-71.721901"
     y="88.633041"
     font-size="5px"
     font-weight="bold"
     id="text8"
     style="font-weight:bold;font-size:5px;font-family:'Helvetica Neue', Helvetica, Arial-Unicode, Arial, Sans-serif;fill:#000000">from the Noun Project</text>
  <text
     xml:space="preserve"
     style="font-style:normal;font-weight:normal;font-size:10.66666698px;line-height:1.25;font-family:sans-serif;letter-spacing:0px;word-spacing:0px;fill:#000000;fill-opacity:1;stroke:none"
     x="-79.21244"
     y="-7.1146927"
     id="text884"><tspan
       sodipodi:role="line"
       id="tspan882"
       x="-79.21244"
       y="-7.1146927">https://thenounproject.com/search/?q=book&amp;i=1557574</tspan></text>
</svg>
